<mxfile host="Electron" modified="2024-03-27T16:43:36.234Z" agent="Mozilla/5.0 (Windows NT 10.0; Win64; x64) AppleWebKit/537.36 (KHTML, like Gecko) draw.io/24.1.0 Chrome/120.0.6099.109 Electron/28.1.0 Safari/537.36" etag="8BiOZIFRjPTxVoMEqbaa" version="24.1.0" type="device">
  <diagram name="Pagina-1" id="3rexr1ygnE5T7kVDcv5-">
    <mxGraphModel dx="1044" dy="617" grid="1" gridSize="10" guides="1" tooltips="1" connect="1" arrows="1" fold="1" page="1" pageScale="1" pageWidth="827" pageHeight="1169" math="0" shadow="0">
      <root>
        <mxCell id="0" />
        <mxCell id="1" parent="0" />
        <mxCell id="UgeCToWuZ1hnlTYrIX2S-10" style="edgeStyle=orthogonalEdgeStyle;rounded=0;orthogonalLoop=1;jettySize=auto;html=1;endArrow=classic;endFill=1;" edge="1" parent="1" source="UgeCToWuZ1hnlTYrIX2S-1" target="UgeCToWuZ1hnlTYrIX2S-9">
          <mxGeometry relative="1" as="geometry" />
        </mxCell>
        <mxCell id="UgeCToWuZ1hnlTYrIX2S-15" style="edgeStyle=orthogonalEdgeStyle;rounded=0;orthogonalLoop=1;jettySize=auto;html=1;entryX=0.5;entryY=1;entryDx=0;entryDy=0;" edge="1" parent="1" source="UgeCToWuZ1hnlTYrIX2S-1" target="UgeCToWuZ1hnlTYrIX2S-12">
          <mxGeometry relative="1" as="geometry" />
        </mxCell>
        <mxCell id="UgeCToWuZ1hnlTYrIX2S-16" value="" style="edgeStyle=orthogonalEdgeStyle;rounded=0;orthogonalLoop=1;jettySize=auto;html=1;endArrow=doubleBlock;endFill=1;" edge="1" parent="1" source="UgeCToWuZ1hnlTYrIX2S-1" target="UgeCToWuZ1hnlTYrIX2S-12">
          <mxGeometry relative="1" as="geometry" />
        </mxCell>
        <mxCell id="UgeCToWuZ1hnlTYrIX2S-1" value="Prodotto" style="rounded=0;whiteSpace=wrap;html=1;" vertex="1" parent="1">
          <mxGeometry x="139" y="410" width="160" height="60" as="geometry" />
        </mxCell>
        <mxCell id="UgeCToWuZ1hnlTYrIX2S-21" style="edgeStyle=orthogonalEdgeStyle;rounded=0;orthogonalLoop=1;jettySize=auto;html=1;entryX=0.5;entryY=1;entryDx=0;entryDy=0;endArrow=doubleBlock;endFill=1;" edge="1" parent="1" source="UgeCToWuZ1hnlTYrIX2S-2" target="UgeCToWuZ1hnlTYrIX2S-20">
          <mxGeometry relative="1" as="geometry" />
        </mxCell>
        <mxCell id="UgeCToWuZ1hnlTYrIX2S-2" value="Utente" style="rounded=0;whiteSpace=wrap;html=1;" vertex="1" parent="1">
          <mxGeometry x="620" y="400" width="120" height="60" as="geometry" />
        </mxCell>
        <mxCell id="UgeCToWuZ1hnlTYrIX2S-23" style="edgeStyle=orthogonalEdgeStyle;rounded=0;orthogonalLoop=1;jettySize=auto;html=1;" edge="1" parent="1" source="UgeCToWuZ1hnlTYrIX2S-3" target="UgeCToWuZ1hnlTYrIX2S-20">
          <mxGeometry relative="1" as="geometry" />
        </mxCell>
        <mxCell id="UgeCToWuZ1hnlTYrIX2S-30" style="edgeStyle=orthogonalEdgeStyle;rounded=0;orthogonalLoop=1;jettySize=auto;html=1;entryX=1;entryY=0.5;entryDx=0;entryDy=0;endArrow=doubleBlock;endFill=1;" edge="1" parent="1" source="UgeCToWuZ1hnlTYrIX2S-3" target="UgeCToWuZ1hnlTYrIX2S-28">
          <mxGeometry relative="1" as="geometry" />
        </mxCell>
        <mxCell id="UgeCToWuZ1hnlTYrIX2S-3" value="Ordine" style="rounded=0;whiteSpace=wrap;html=1;" vertex="1" parent="1">
          <mxGeometry x="620" y="140" width="120" height="60" as="geometry" />
        </mxCell>
        <mxCell id="UgeCToWuZ1hnlTYrIX2S-11" style="edgeStyle=orthogonalEdgeStyle;rounded=0;orthogonalLoop=1;jettySize=auto;html=1;entryX=0.5;entryY=1;entryDx=0;entryDy=0;endArrow=doubleBlock;endFill=1;" edge="1" parent="1" source="UgeCToWuZ1hnlTYrIX2S-4" target="UgeCToWuZ1hnlTYrIX2S-9">
          <mxGeometry relative="1" as="geometry" />
        </mxCell>
        <mxCell id="UgeCToWuZ1hnlTYrIX2S-4" value="Categorie" style="rounded=0;whiteSpace=wrap;html=1;" vertex="1" parent="1">
          <mxGeometry x="159" y="700" width="120" height="60" as="geometry" />
        </mxCell>
        <mxCell id="UgeCToWuZ1hnlTYrIX2S-13" style="edgeStyle=orthogonalEdgeStyle;rounded=0;orthogonalLoop=1;jettySize=auto;html=1;entryX=0.5;entryY=0;entryDx=0;entryDy=0;" edge="1" parent="1" source="UgeCToWuZ1hnlTYrIX2S-5" target="UgeCToWuZ1hnlTYrIX2S-12">
          <mxGeometry relative="1" as="geometry" />
        </mxCell>
        <mxCell id="UgeCToWuZ1hnlTYrIX2S-29" style="edgeStyle=orthogonalEdgeStyle;rounded=0;orthogonalLoop=1;jettySize=auto;html=1;entryX=0;entryY=0.5;entryDx=0;entryDy=0;endArrow=doubleBlock;endFill=1;" edge="1" parent="1" source="UgeCToWuZ1hnlTYrIX2S-5" target="UgeCToWuZ1hnlTYrIX2S-28">
          <mxGeometry relative="1" as="geometry" />
        </mxCell>
        <mxCell id="UgeCToWuZ1hnlTYrIX2S-5" value="Variazione" style="rounded=0;whiteSpace=wrap;html=1;" vertex="1" parent="1">
          <mxGeometry x="159" y="140" width="120" height="60" as="geometry" />
        </mxCell>
        <mxCell id="UgeCToWuZ1hnlTYrIX2S-9" value="contiene" style="rhombus;whiteSpace=wrap;html=1;" vertex="1" parent="1">
          <mxGeometry x="179" y="530" width="80" height="80" as="geometry" />
        </mxCell>
        <mxCell id="UgeCToWuZ1hnlTYrIX2S-12" value="effettua" style="rhombus;whiteSpace=wrap;html=1;" vertex="1" parent="1">
          <mxGeometry x="179" y="260" width="80" height="80" as="geometry" />
        </mxCell>
        <mxCell id="UgeCToWuZ1hnlTYrIX2S-17" value="" style="endArrow=none;html=1;rounded=0;" edge="1" parent="1">
          <mxGeometry width="50" height="50" relative="1" as="geometry">
            <mxPoint x="189" y="650" as="sourcePoint" />
            <mxPoint x="249" y="650" as="targetPoint" />
          </mxGeometry>
        </mxCell>
        <mxCell id="UgeCToWuZ1hnlTYrIX2S-18" value="" style="endArrow=none;html=1;rounded=0;" edge="1" parent="1">
          <mxGeometry width="50" height="50" relative="1" as="geometry">
            <mxPoint x="184" y="390" as="sourcePoint" />
            <mxPoint x="254" y="390" as="targetPoint" />
          </mxGeometry>
        </mxCell>
        <mxCell id="UgeCToWuZ1hnlTYrIX2S-20" value="effettua" style="rhombus;whiteSpace=wrap;html=1;" vertex="1" parent="1">
          <mxGeometry x="640" y="250" width="80" height="80" as="geometry" />
        </mxCell>
        <mxCell id="UgeCToWuZ1hnlTYrIX2S-24" value="" style="endArrow=none;html=1;rounded=0;" edge="1" parent="1">
          <mxGeometry width="50" height="50" relative="1" as="geometry">
            <mxPoint x="650" y="380" as="sourcePoint" />
            <mxPoint x="710" y="380" as="targetPoint" />
          </mxGeometry>
        </mxCell>
        <mxCell id="UgeCToWuZ1hnlTYrIX2S-26" value="" style="ellipse;whiteSpace=wrap;html=1;aspect=fixed;" vertex="1" parent="1">
          <mxGeometry x="710" y="490" width="30" height="30" as="geometry" />
        </mxCell>
        <mxCell id="UgeCToWuZ1hnlTYrIX2S-28" value="appoggio" style="rhombus;whiteSpace=wrap;html=1;" vertex="1" parent="1">
          <mxGeometry x="414" y="130" width="80" height="80" as="geometry" />
        </mxCell>
        <mxCell id="UgeCToWuZ1hnlTYrIX2S-31" value="" style="endArrow=none;html=1;rounded=0;" edge="1" parent="1">
          <mxGeometry width="50" height="50" relative="1" as="geometry">
            <mxPoint x="340" y="190" as="sourcePoint" />
            <mxPoint x="340" y="150" as="targetPoint" />
          </mxGeometry>
        </mxCell>
      </root>
    </mxGraphModel>
  </diagram>
</mxfile>
